<?xml version="1.0" encoding="UTF-8" standalone="no"?>
<svg id="shape" xmlns:rdf="http://www.w3.org/1999/02/22-rdf-syntax-ns#" xmlns="http://www.w3.org/2000/svg" height="190" width="80" version="1.1" xmlns:cc="http://creativecommons.org/ns#" viewBox="0 0 80 200" xmlns:dc="http://purl.org/dc/elements/1.1/">
 <g id="layer1" transform="translate(0 -852.36)">
     <path id="path4498" d="m35.562 1046.4c-13.466-3.2-22.521-15.4-25.968-28.3-5.1032-18.42-1.5259-37.92 3.758-55.93 4.54-16.6 11.052-34 6.758-51.37-2.95-9.91-10.424-17.86-13.076-27.83-1.7201-9.8575 3.8441-21.536 14.39-23.292 14.39-3.1904 30.353 2.8347 38.776 15.006 8.4824 10.138 11.572 23.646 10.666 36.635-1.0669 21.022-9.9599 40.522-13.739 61.021-1.4024 8.4023-0.7539 17.383 3.9707 24.707 4.2484 8.6862 12.274 15.829 13.656 25.728 0.88076 12.3-9.2738 23.972-21.632 24.596-5.8447 0.438-11.821 0.2878-17.559-0.9823z"
           style="stroke-width: 7px;" />
 </g>

 <rect x="11" y="21" width="45" height="1px" />
 <rect x="11"  y="36" width="56" height="1px" />
 <rect x="19" y="52" width="49" height="1px" />
 <rect x="23" y="68" width="45" height="1px" />
 <rect x="22" y="84" width="43" height="1px" />
 <rect x="20" y="100" width="41" height="1px" />
 <rect x="15" y="116" width="40" height="1px" />
 <rect x="12"  y="132" width="42" height="1px" />
 <rect x="10"  y="148" width="50" height="1px" />
 <rect x="12"  y="164" width="60" height="1px" />
 <rect x="20"  y="180" width="50" height="1px" />
</svg>
